<?xml version="1.0" ?><!DOCTYPE svg  PUBLIC '-//W3C//DTD SVG 1.1//EN'  'http://www.w3.org/Graphics/SVG/1.1/DTD/svg11.dtd'><svg enable-background="new 0 0 100 100" height="100px" id="Layer_1" version="1.1" viewBox="0 0 100 100" width="100px" xml:space="preserve" xmlns="http://www.w3.org/2000/svg" xmlns:xlink="http://www.w3.org/1999/xlink"><g><circle cx="50" cy="49.999" r="45"/><path d="M69.072,43.972c-0.004-0.025-0.01-0.047-0.014-0.072c-0.008-0.047-0.015-0.092-0.028-0.137   c-0.008-0.027-0.018-0.053-0.026-0.08c-0.014-0.041-0.025-0.08-0.039-0.119c-0.013-0.027-0.026-0.055-0.04-0.08   c-0.015-0.037-0.032-0.074-0.057-0.109c-0.012-0.025-0.029-0.051-0.046-0.076c-0.021-0.033-0.044-0.068-0.069-0.1   c-0.019-0.023-0.034-0.047-0.055-0.07c-0.027-0.031-0.054-0.061-0.084-0.09c-0.021-0.021-0.042-0.043-0.063-0.064   c-0.03-0.025-0.062-0.053-0.092-0.076c-0.026-0.02-0.051-0.039-0.074-0.057c-0.01-0.006-0.019-0.016-0.028-0.02L50.911,31.19   c-0.552-0.368-1.27-0.368-1.821,0L31.646,42.821c-0.01,0.004-0.018,0.014-0.027,0.02c-0.026,0.018-0.048,0.037-0.074,0.057   c-0.032,0.023-0.062,0.051-0.092,0.076c-0.024,0.021-0.044,0.043-0.066,0.064c-0.03,0.029-0.056,0.059-0.082,0.09   c-0.02,0.023-0.04,0.047-0.056,0.07c-0.024,0.031-0.048,0.066-0.07,0.1c-0.016,0.025-0.031,0.051-0.048,0.076   c-0.018,0.035-0.036,0.072-0.054,0.109c-0.012,0.025-0.026,0.053-0.036,0.08c-0.016,0.039-0.03,0.078-0.044,0.119   c-0.008,0.027-0.018,0.053-0.024,0.08c-0.012,0.045-0.02,0.09-0.027,0.137c-0.006,0.025-0.013,0.047-0.015,0.072   c-0.01,0.068-0.016,0.141-0.016,0.213v11.631c0,0.072,0.006,0.143,0.016,0.215c0.002,0.021,0.009,0.047,0.015,0.07   c0.008,0.047,0.016,0.092,0.027,0.137c0.007,0.027,0.017,0.055,0.024,0.08c0.014,0.039,0.028,0.08,0.044,0.121   c0.01,0.025,0.024,0.053,0.036,0.078c0.018,0.037,0.036,0.072,0.054,0.109c0.017,0.025,0.032,0.051,0.048,0.076   c0.022,0.033,0.046,0.066,0.07,0.098c0.016,0.025,0.036,0.049,0.056,0.072c0.026,0.029,0.052,0.061,0.082,0.088   c0.022,0.023,0.042,0.045,0.066,0.064c0.029,0.027,0.06,0.055,0.092,0.078c0.026,0.02,0.048,0.039,0.074,0.057   c0.01,0.006,0.018,0.016,0.027,0.021L49.09,68.81c0.275,0.186,0.594,0.275,0.911,0.275c0.318,0,0.636-0.09,0.91-0.275   l17.445-11.629c0.01-0.006,0.019-0.016,0.028-0.021c0.023-0.018,0.048-0.037,0.074-0.057c0.029-0.023,0.062-0.051,0.092-0.078   c0.021-0.02,0.042-0.041,0.063-0.064c0.03-0.027,0.057-0.059,0.084-0.088c0.021-0.023,0.036-0.047,0.055-0.072   c0.025-0.031,0.048-0.064,0.069-0.098c0.017-0.025,0.034-0.051,0.046-0.076c0.024-0.037,0.042-0.072,0.057-0.109   c0.014-0.025,0.027-0.053,0.04-0.078c0.014-0.041,0.025-0.082,0.039-0.121c0.009-0.025,0.019-0.053,0.026-0.08   c0.014-0.045,0.021-0.09,0.028-0.137c0.004-0.023,0.01-0.049,0.014-0.07c0.008-0.072,0.014-0.143,0.014-0.215V44.185   C69.086,44.112,69.08,44.04,69.072,43.972z M51.641,35.62l12.852,8.568l-5.741,3.838l-7.11-4.758V35.62z M48.362,35.62v7.648   l-7.113,4.758l-5.741-3.838L48.362,35.62z M34.196,47.255l4.103,2.744l-4.103,2.746V47.255z M48.362,64.38l-12.854-8.566   l5.741-3.84l7.113,4.756V64.38z M50.001,53.882L44.2,49.999l5.801-3.879l5.802,3.879L50.001,53.882z M51.641,64.38v-7.65   l7.11-4.756l5.741,3.84L51.641,64.38z M65.806,52.745l-4.102-2.746l4.102-2.744V52.745z" fill="#FFFFFF" id="Codepen_1_"/></g></svg>