<svg height="512" viewBox="0 0 58 58" width="512" xmlns="http://www.w3.org/2000/svg"><g id="Page-1" fill="none" fill-rule="evenodd"><g id="137---Command-File" fill-rule="nonzero"><path id="Shape" d="m13 0h27c2.209139 0 4 1.790861 4 4v46c0 2.209139-1.790861 4-4 4h-36c-2.209139 0-4-1.790861-4-4v-37z" fill="#b0d3f0"/><path id="Shape" d="m13 0v9c0 2.209139-1.790861 4-4 4h-9z" fill="#90bae1"/><path id="Shape" d="m34 5h-6c-.5522847 0-1-.44771525-1-1s.4477153-1 1-1h6c.5522847 0 1 .44771525 1 1s-.4477153 1-1 1z" fill="#ecf0f1"/><path id="Shape" d="m40 5h-2c-.5522847 0-1-.44771525-1-1s.4477153-1 1-1h2c.5522847 0 1 .44771525 1 1s-.4477153 1-1 1z" fill="#ecf0f1"/><path id="Shape" d="m6 50h-1c-.55228475 0-1-.4477153-1-1s.44771525-1 1-1h1c.55228475 0 1 .4477153 1 1s-.44771525 1-1 1z" fill="#90bae1"/><path id="Shape" d="m16 50h-6c-.55228475 0-1-.4477153-1-1s.44771525-1 1-1h6c.5522847 0 1 .4477153 1 1s-.4477153 1-1 1z" fill="#90bae1"/><rect id="Rectangle-path" fill="#955ba5" height="34" rx="4" width="42" x="16" y="24"/><rect id="Rectangle-path" fill="#35495e" height="34" rx="1" transform="matrix(0 1 -1 0 78 4)" width="26" x="24" y="24"/><g fill="#ecf0f1"><path id="Shape" d="m24 39c-.4304304 0-.8125693-.2754301-.9486833-.6837722-.136114-.4083422.004339-.8579696.3486833-1.1162278l2.933-2.2-2.933-2.2c-.2858125-.2143594-.4355547-.5649147-.3928203-.9196152.0427344-.3547006.2714531-.6596589.6-.8.3285469-.1403412.7070078-.0947442.9928203.1196152l4 3c.2518058.1888544.4.4852427.4.8s-.1481942.6111456-.4.8l-4 3c-.1728912.1302129-.3835593.2004356-.6.2z"/><path id="Shape" d="m33 39h-3c-.5522847 0-1-.4477153-1-1s.4477153-1 1-1h3c.5522847 0 1 .4477153 1 1s-.4477153 1-1 1z"/></g></g></g></svg>