<?xml version="1.0" encoding="iso-8859-1"?>
<!-- Generator: Adobe Illustrator 19.0.0, SVG Export Plug-In . SVG Version: 6.00 Build 0)  -->
<svg version="1.1" id="Capa_1" xmlns="http://www.w3.org/2000/svg" xmlns:xlink="http://www.w3.org/1999/xlink" x="0px" y="0px"
	 viewBox="0 0 512 512" style="enable-background:new 0 0 512 512;" xml:space="preserve">
<path style="fill:#5C5560;" d="M512,256c0,45.411-11.828,88.074-32.569,125.053c-9.498,16.927-20.867,32.674-33.823,46.947
	c-35.297,38.891-82.38,66.863-135.617,78.294h-0.01C292.571,510.036,274.526,512,256,512s-36.603-1.964-54.011-5.716h-0.01
	c-53.227-11.431-100.3-39.414-135.596-78.284c-12.957-14.273-24.315-30.02-33.813-46.958C11.818,344.064,0,301.422,0,256
	C0,114.615,114.615,0,256,0S512,114.615,512,256z"/>
<path style="fill:#7F8B9A;" d="M479.608,181.791v194.957c0,1.442-0.052,2.884-0.178,4.305
	c-9.498,16.927-20.867,32.674-33.823,46.947L309.99,506.295h-0.01C292.571,510.036,274.526,512,256,512s-36.603-1.964-54.011-5.716
	h-0.01L91.052,442.253l-24.67-14.252c-12.957-14.273-24.315-30.02-33.813-46.958c-0.125-1.421-0.178-2.853-0.178-4.295V181.791
	c0-19.56,10.439-37.637,27.376-47.428l168.845-97.479c16.959-9.791,37.815-9.791,54.763,0l135.064,77.981l33.792,19.498
	C469.159,144.154,479.608,162.231,479.608,181.791z"/>
<path style="fill:#A8B9CC;" d="M479.608,181.791v194.957c0,1.442-0.052,2.884-0.178,4.305
	c-9.498,16.927-20.867,32.674-33.823,46.947L309.99,506.295C292.582,510.036,274.526,512,256,512s-36.603-1.964-54.011-5.716
	L91.052,442.253L418.44,114.866l33.792,19.498C469.159,144.154,479.608,162.231,479.608,181.791z"/>
<path style="fill:#F2F2F2;" d="M371.962,249.65c0-57.004-49.18-99.478-114.009-99.478s-125.745,42.474-125.745,131.893
	s59.239,129.656,122.951,129.656s116.804-29.061,116.804-95.566h-68.741c0,0-2.235,35.209-41.915,35.209
	s-53.092-37.444-53.092-68.182s11.736-70.977,50.857-70.977s43.033,37.444,43.033,37.444h69.857V249.65z"/>
<g>
</g>
<g>
</g>
<g>
</g>
<g>
</g>
<g>
</g>
<g>
</g>
<g>
</g>
<g>
</g>
<g>
</g>
<g>
</g>
<g>
</g>
<g>
</g>
<g>
</g>
<g>
</g>
<g>
</g>
</svg>
