<?xml version="1.0" encoding="iso-8859-1"?>
<!-- Generator: Adobe Illustrator 19.0.0, SVG Export Plug-In . SVG Version: 6.00 Build 0)  -->
<svg version="1.1" id="Capa_1" xmlns="http://www.w3.org/2000/svg" xmlns:xlink="http://www.w3.org/1999/xlink" x="0px" y="0px"
	 viewBox="0 0 512 512" style="enable-background:new 0 0 512 512;" xml:space="preserve">
<path style="fill:#2196F3;" d="M434.582,110.165c-2.02-2.227-4.887-3.497-7.893-3.499H85.355
	c-5.891-0.026-10.688,4.728-10.714,10.619c-0.002,0.351,0.014,0.701,0.047,1.05l32,341.333c0.413,4.379,3.471,8.055,7.701,9.259
	l149.333,42.667c0.964,0.274,1.963,0.41,2.965,0.405c1.144-0.001,2.282-0.181,3.371-0.533l128-42.667
	c4.015-1.336,6.86-4.918,7.253-9.131l32-341.333C437.592,115.35,436.6,112.384,434.582,110.165z"/>
<g>
	<path style="fill:#FAFAFA;" d="M266.689,426.667c-0.989-0.006-1.973-0.15-2.923-0.427l-74.667-21.333
		c-3.665-1.043-6.495-3.963-7.424-7.659l-10.667-42.667c-1.558-5.681,1.785-11.55,7.466-13.108
		c5.681-1.558,11.55,1.785,13.108,7.466c0.044,0.159,0.083,0.318,0.119,0.479l9.173,36.693l65.813,18.816l64.853-18.539
		l19.2-173.035h-190.72c-5.891,0-10.667-4.776-10.667-10.667c0-5.891,4.776-10.667,10.667-10.667h202.667
		c5.891-0.036,10.695,4.711,10.731,10.602c0.002,0.414-0.019,0.827-0.065,1.238l-21.333,192c-0.484,4.3-3.518,7.882-7.68,9.067
		l-74.667,21.333C268.704,426.537,267.698,426.674,266.689,426.667z"/>
	<path style="fill:#FAFAFA;" d="M352.022,298.667H170.689c-5.891,0-10.667-4.776-10.667-10.667s4.776-10.667,10.667-10.667h181.333
		c5.891,0,10.667,4.776,10.667,10.667S357.913,298.667,352.022,298.667z"/>
</g>
<g>
	<path style="fill:#37474F;" d="M192.022,64h-42.667c-5.891,0-10.667-4.776-10.667-10.667V10.667C138.689,4.776,143.464,0,149.355,0
		h42.667c5.891,0,10.667,4.776,10.667,10.667s-4.776,10.667-10.667,10.667h-32v21.333h32c5.891,0,10.667,4.776,10.667,10.667
		S197.913,64,192.022,64z"/>
	<path style="fill:#37474F;" d="M277.355,64h-42.667c-5.891,0-10.667-4.776-10.667-10.667s4.776-10.667,10.667-10.667h16.917
		l-24.469-24.448c-4.171-4.16-4.179-10.914-0.019-15.085c2.006-2.011,4.731-3.139,7.571-3.134h42.667
		c5.891,0,10.667,4.776,10.667,10.667s-4.776,10.667-10.667,10.667h-16.917l24.448,24.448c4.171,4.16,4.179,10.914,0.019,15.085
		C282.904,62.872,280.188,63.999,277.355,64z"/>
	<path style="fill:#37474F;" d="M362.689,64h-42.667c-5.891,0-10.667-4.776-10.667-10.667s4.776-10.667,10.667-10.667h16.917
		L312.47,18.219c-4.171-4.16-4.179-10.914-0.019-15.085c2.006-2.011,4.731-3.139,7.571-3.134h42.667
		c5.891,0,10.667,4.776,10.667,10.667s-4.776,10.667-10.667,10.667h-16.917l24.448,24.448c4.171,4.16,4.179,10.914,0.019,15.085
		C368.238,62.872,365.521,63.999,362.689,64z"/>
</g>
<g>
</g>
<g>
</g>
<g>
</g>
<g>
</g>
<g>
</g>
<g>
</g>
<g>
</g>
<g>
</g>
<g>
</g>
<g>
</g>
<g>
</g>
<g>
</g>
<g>
</g>
<g>
</g>
<g>
</g>
</svg>
