<?xml version="1.0" encoding="iso-8859-1"?>
<!-- Generator: Adobe Illustrator 19.0.0, SVG Export Plug-In . SVG Version: 6.00 Build 0)  -->
<svg version="1.1" id="Capa_1" xmlns="http://www.w3.org/2000/svg" xmlns:xlink="http://www.w3.org/1999/xlink" x="0px" y="0px"
	 viewBox="0 0 512.001 512.001" style="enable-background:new 0 0 512.001 512.001;" xml:space="preserve">
<g>
	<path style="fill:#37474F;" d="M106.667,0.001c-5.891,0-10.667,4.776-10.667,10.667v42.667c0,5.891,4.776,10.667,10.667,10.667
		c5.891,0,10.667-4.776,10.667-10.667V10.667C117.334,4.776,112.558,0.001,106.667,0.001z"/>
	<path style="fill:#37474F;" d="M149.334,42.667h-42.667c-5.891,0-10.667-4.776-10.667-10.667s4.776-10.667,10.667-10.667h42.667
		c5.891,0,10.667,4.776,10.667,10.667S155.225,42.667,149.334,42.667z"/>
	<path style="fill:#37474F;" d="M149.334,64.001c-5.891,0-10.667-4.776-10.667-10.667V10.667c0-5.891,4.776-10.667,10.667-10.667
		c5.891,0,10.667,4.776,10.667,10.667v42.667C160.001,59.225,155.225,64.001,149.334,64.001z"/>
	<path style="fill:#37474F;" d="M234.667,21.334h-42.667c-5.891,0-10.667-4.776-10.667-10.667s4.776-10.667,10.667-10.667h42.667
		c5.891,0,10.667,4.776,10.667,10.667S240.558,21.334,234.667,21.334z"/>
	<path style="fill:#37474F;" d="M213.334,64.001c-5.891,0-10.667-4.776-10.667-10.667V10.667c0-5.891,4.776-10.667,10.667-10.667
		c5.891,0,10.667,4.776,10.667,10.667v42.667C224.001,59.225,219.225,64.001,213.334,64.001z"/>
	<path style="fill:#37474F;" d="M341.334,64.001c-5.891,0-10.667-4.776-10.667-10.667V42.667l-12.8,17.067
		c-3.878,4.713-10.842,5.39-15.555,1.512c-0.552-0.454-1.058-0.96-1.512-1.512l-12.8-17.067v10.667
		c0,5.891-4.776,10.667-10.667,10.667c-5.891,0-10.667-4.776-10.667-10.667V10.667c0-5.891,4.776-10.667,10.667-10.667
		c3.357,0,6.519,1.581,8.533,4.267l23.467,31.275l23.467-31.275c3.535-4.713,10.221-5.668,14.933-2.133
		c2.686,2.014,4.267,5.176,4.267,8.533v42.667C352.001,59.225,347.225,64.001,341.334,64.001z"/>
	<path style="fill:#37474F;" d="M416.001,64.001h-32c-5.891,0-10.667-4.776-10.667-10.667V10.667
		c0-5.891,4.776-10.667,10.667-10.667c5.891,0,10.667,4.776,10.667,10.667v32h21.333c5.891,0,10.667,4.776,10.667,10.667
		S421.892,64.001,416.001,64.001z"/>
</g>
<path style="fill:#FF5722;" d="M434.561,110.166c-2.02-2.227-4.887-3.497-7.893-3.499H85.334
	c-5.891-0.026-10.688,4.728-10.714,10.619c-0.002,0.351,0.014,0.701,0.047,1.05l32,341.333c0.413,4.379,3.471,8.055,7.701,9.259
	l149.333,42.667c0.964,0.274,1.963,0.41,2.965,0.405c1.144-0.001,2.282-0.181,3.371-0.533l128-42.667
	c4.015-1.336,6.86-4.918,7.253-9.131l32-341.333C437.57,115.35,436.579,112.384,434.561,110.166z"/>
<path style="fill:#FAFAFA;" d="M266.667,426.667c-0.989-0.006-1.973-0.15-2.923-0.427l-74.667-21.333
	c-3.665-1.043-6.495-3.963-7.424-7.659l-10.667-42.667c-1.558-5.681,1.785-11.55,7.466-13.108c5.681-1.558,11.55,1.785,13.108,7.466
	c0.044,0.159,0.083,0.318,0.119,0.479l9.173,36.693l65.579,18.731l54.315-18.112l8.789-88.064H170.667
	c-5.404,0.043-9.986-3.962-10.667-9.323l-10.667-85.333c-0.742-5.844,3.393-11.183,9.237-11.926c0.474-0.06,0.952-0.089,1.429-0.085
	h202.667c5.891,0,10.667,4.776,10.667,10.667c0,5.891-4.776,10.667-10.667,10.667H172.075l8,64h161.259
	c5.891-0.03,10.69,4.722,10.72,10.613c0.002,0.374-0.016,0.748-0.053,1.12l-10.667,106.667c-0.414,4.183-3.245,7.733-7.232,9.067
	l-64,21.333C268.993,426.492,267.833,426.673,266.667,426.667z"/>
<path d="M106.667,64.001c-5.891,0-10.667-4.776-10.667-10.667V10.667c0-5.891,4.776-10.667,10.667-10.667
	c5.891,0,10.667,4.776,10.667,10.667v42.667C117.334,59.225,112.558,64.001,106.667,64.001z"/>
<path d="M149.334,42.667h-42.667c-5.891,0-10.667-4.776-10.667-10.667s4.776-10.667,10.667-10.667h42.667
	c5.891,0,10.667,4.776,10.667,10.667S155.225,42.667,149.334,42.667z"/>
<path d="M149.334,64.001c-5.891,0-10.667-4.776-10.667-10.667V10.667c0-5.891,4.776-10.667,10.667-10.667
	c5.891,0,10.667,4.776,10.667,10.667v42.667C160.001,59.225,155.225,64.001,149.334,64.001z"/>
<path d="M234.667,21.334h-42.667c-5.891,0-10.667-4.776-10.667-10.667s4.776-10.667,10.667-10.667h42.667
	c5.891,0,10.667,4.776,10.667,10.667S240.558,21.334,234.667,21.334z"/>
<path d="M213.334,64.001c-5.891,0-10.667-4.776-10.667-10.667V10.667c0-5.891,4.776-10.667,10.667-10.667
	c5.891,0,10.667,4.776,10.667,10.667v42.667C224.001,59.225,219.225,64.001,213.334,64.001z"/>
<path d="M341.334,64.001c-5.891,0-10.667-4.776-10.667-10.667V42.667l-12.8,17.067c-3.878,4.713-10.842,5.39-15.555,1.512
	c-0.552-0.454-1.058-0.96-1.512-1.512l-12.8-17.067v10.667c0,5.891-4.776,10.667-10.667,10.667c-5.891,0-10.667-4.776-10.667-10.667
	V10.667c0-5.891,4.776-10.667,10.667-10.667c3.357,0,6.519,1.581,8.533,4.267l23.467,31.275l23.467-31.275
	c3.535-4.713,10.221-5.668,14.933-2.133c2.686,2.014,4.267,5.176,4.267,8.533v42.667C352.001,59.225,347.225,64.001,341.334,64.001z
	"/>
<path d="M416.001,64.001h-32c-5.891,0-10.667-4.776-10.667-10.667V10.667c0-5.891,4.776-10.667,10.667-10.667
	c5.891,0,10.667,4.776,10.667,10.667v32h21.333c5.891,0,10.667,4.776,10.667,10.667S421.892,64.001,416.001,64.001z"/>
<path d="M266.667,512.001c-0.989-0.006-1.973-0.15-2.923-0.427l-149.333-42.667c-4.24-1.186-7.317-4.855-7.744-9.237l-32-341.333
	c-0.554-5.865,3.752-11.068,9.617-11.622c0.349-0.033,0.699-0.049,1.05-0.047h341.333c5.891-0.026,10.688,4.728,10.714,10.619
	c0.002,0.351-0.014,0.701-0.047,1.05l-32,341.333c-0.393,4.213-3.239,7.795-7.253,9.131l-128,42.667
	C268.978,511.824,267.826,512.004,266.667,512.001z M127.275,450.411l139.157,39.744l118.272-39.424l30.251-322.731H97.046
	L127.275,450.411z"/>
<path d="M266.667,426.667c-0.989-0.006-1.973-0.15-2.923-0.427l-74.667-21.333c-3.665-1.043-6.495-3.963-7.424-7.659l-10.667-42.667
	c-1.558-5.681,1.785-11.55,7.466-13.108c5.681-1.558,11.55,1.785,13.108,7.466c0.044,0.159,0.083,0.318,0.119,0.479l9.173,36.693
	l65.579,18.731l54.315-18.112l8.789-88.064H170.667c-5.404,0.043-9.986-3.962-10.667-9.323l-10.667-85.333
	c-0.742-5.844,3.393-11.183,9.237-11.926c0.474-0.06,0.952-0.089,1.429-0.085h202.667c5.891,0,10.667,4.776,10.667,10.667
	c0,5.891-4.776,10.667-10.667,10.667H172.075l8,64h161.259c5.891-0.03,10.69,4.722,10.72,10.613c0.002,0.374-0.016,0.748-0.053,1.12
	l-10.667,106.667c-0.414,4.183-3.245,7.733-7.232,9.067l-64,21.333C268.993,426.492,267.833,426.673,266.667,426.667z"/>
<g>
</g>
<g>
</g>
<g>
</g>
<g>
</g>
<g>
</g>
<g>
</g>
<g>
</g>
<g>
</g>
<g>
</g>
<g>
</g>
<g>
</g>
<g>
</g>
<g>
</g>
<g>
</g>
<g>
</g>
</svg>
