<svg enable-background="new 0 0 256 256" height="512" viewBox="0 0 256 256" width="512" xmlns="http://www.w3.org/2000/svg"><g id="Layer_27"><g><g><g><path d="m197.536 170v-145.534c0-6.787-5.553-12.341-12.341-12.341h-100.367l-50.402 50.401v107.474z" fill="#edf4fc"/></g></g><g><g><path d="m34.426 170v51.534c0 6.787 5.553 12.341 12.341 12.341h138.428c6.787 0 12.341-5.553 12.341-12.341v-51.534z" fill="#fc657e"/></g></g><g><g><path d="m111.453 185.859h-4.075c-.276 0-.5.224-.5.5v23.465c0 2.583-1.29 4.202-4.022 4.202-3.179 0-4.427-2.208-4.427-5.411 0-.276-.224-.5-.5-.5h-4.074c-.276 0-.5.224-.5.5 0 6.492 3.779 10.128 9.68 10.128 5.705 0 8.919-3.55 8.919-8.919v-23.465c-.001-.276-.225-.5-.501-.5z"/></g></g><g><g><path d="m122.425 196.761c-1.573-1.863-1.45-7.036 4.073-7.036 3.306 0 5.248 2.032 5.688 4.34.045.236.251.406.491.406h4.389c.3 0 .534-.263.496-.563-.604-4.701-4.373-8.452-11.064-8.452-3.577 0-7.135 1.15-9.043 4.174-1.871 2.965-1.54 7.26.109 9.518 4.373 5.983 15.331 3.897 15.331 10.721 0 2.594-1.616 4.605-5.053 4.605-3.685 0-5.905-2.413-6.175-5.103-.026-.256-.241-.45-.498-.45h-4.344c-.292 0-.524.25-.498.544.505 5.754 5.527 9.278 11.648 9.278 6.675 0 10.263-4.156 10.263-9.008.001-10.433-12.082-8.547-15.813-12.974z"/></g></g><g><g><path d="m185.195 236.375h-138.428c-8.183 0-14.84-6.658-14.84-14.841v-51.534c0-1.381 1.119-2.5 2.5-2.5s2.5 1.119 2.5 2.5v51.534c0 5.426 4.415 9.841 9.84 9.841h138.428c5.426 0 9.841-4.415 9.841-9.841v-51.534c0-1.381 1.119-2.5 2.5-2.5s2.5 1.119 2.5 2.5v51.534c0 8.183-6.658 14.841-14.841 14.841z"/></g></g><g><g><path d="m34.426 62.526h38.061c6.787 0 12.341-5.553 12.341-12.341v-38.06z" fill="#fc657e"/></g></g><g><g><path d="m223.918 131.551c-4.149.773-7.419 3.976-8.208 8.041-.04.204-.325.204-.364 0-.789-4.065-4.059-7.268-8.208-8.041-.208-.039-.208-.318 0-.357 4.149-.773 7.419-3.976 8.208-8.041.04-.204.325-.204.364 0 .789 4.065 4.059 7.268 8.208 8.041.208.039.208.318 0 .357z" fill="#f5c84c"/></g></g><g><g><path d="m119.412 250.253c-2.91.542-5.204 2.789-5.757 5.64-.028.143-.228.143-.255 0-.553-2.851-2.847-5.098-5.757-5.64-.146-.027-.146-.223 0-.25 2.91-.542 5.204-2.789 5.757-5.64.028-.143.228-.143.255 0 .553 2.851 2.847 5.098 5.757 5.64.147.027.147.222 0 .25z" fill="#fc657e"/></g></g><g><g><circle cx="73.981" cy="3.377" fill="#fc657e" r="3.377"/></g></g><g><g><circle cx="210.981" cy="102.377" fill="#87d147" r="3.377"/></g></g><g><g><path d="m54.454 10.758h-1.824v-1.825c0-1.366-1.107-2.473-2.473-2.473s-2.473 1.107-2.473 2.473v1.824h-1.824c-1.366 0-2.473 1.107-2.473 2.473s1.107 2.473 2.473 2.473h1.824v1.824c0 1.366 1.107 2.473 2.473 2.473s2.473-1.107 2.473-2.473v-1.824h1.824c1.366 0 2.473-1.107 2.473-2.473s-1.108-2.472-2.473-2.472z" fill="#70d6f9"/></g></g><g><g><circle cx="87.365" cy="245.627" fill="#f5c84c" r="3.377"/></g></g><g><g><path d="m197.536 172.5h-163.11c-1.381 0-2.5-1.119-2.5-2.5v-107.474c0-.663.263-1.299.732-1.768l50.402-50.401c.469-.469 1.104-.732 1.768-.732h100.367c8.183 0 14.841 6.658 14.841 14.841v145.534c0 1.381-1.119 2.5-2.5 2.5zm-160.61-5h158.109v-143.034c0-5.426-4.415-9.841-9.841-9.841h-99.331l-48.937 48.937z"/></g></g><g><g><path d="m72.487 65.026h-37.331c-1.381 0-2.5-1.119-2.5-2.5s1.119-2.5 2.5-2.5h37.331c5.426 0 9.841-4.415 9.841-9.841v-37.06c0-1.381 1.119-2.5 2.5-2.5s2.5 1.119 2.5 2.5v37.061c0 8.183-6.658 14.84-14.841 14.84z"/></g></g><g><g><path d="m157.37 106.08-21.388-16.07c-2.125-1.597-5.154-1.182-6.763.96-1.6 2.129-1.169 5.163.96 6.763l16.249 12.208-16.249 12.208c-2.129 1.601-2.56 4.635-.96 6.763 1.608 2.139 4.644 2.553 6.763.96l21.389-16.071c2.57-1.929 2.573-5.786-.001-7.721z" fill="#fc657e"/></g></g><g><g><path d="m102.671 122.15-16.248-12.208 16.248-12.208c2.134-1.604 2.565-4.629.96-6.763-1.599-2.129-4.634-2.56-6.763-.961l-21.388 16.071c-1.225.921-1.928 2.329-1.928 3.862s.703 2.94 1.928 3.861l21.388 16.07c2.133 1.603 5.16 1.174 6.763-.96 1.602-2.131 1.179-5.156-.96-6.764z" fill="#fc657e"/></g></g><g><g><path d="m125.497 83.787c-2.487-.88-5.265.396-6.166 2.94l-15.302 43.204c-.891 2.516.423 5.274 2.94 6.166 2.53.896 5.279-.436 6.165-2.94l15.302-43.204c.894-2.522-.428-5.276-2.939-6.166z" fill="#fc657e"/></g></g><g><g><path d="m133.091 133.34c-2.228 0-4.43-1.009-5.87-2.923-2.428-3.23-1.775-7.835 1.455-10.264l13.589-10.21-13.588-10.21c-1.563-1.175-2.577-2.891-2.852-4.831s.22-3.87 1.396-5.433c1.179-1.568 2.897-2.583 4.839-2.855 1.934-.269 3.862.226 5.424 1.399l21.388 16.07c1.86 1.398 2.927 3.535 2.927 5.86s-1.067 4.461-2.927 5.859l-21.389 16.071c-1.315.989-2.86 1.467-4.392 1.467zm-.007-41.799c-.109 0-.219.008-.329.023-.616.087-1.163.409-1.538.909-.373.496-.53 1.109-.442 1.726.088.618.409 1.164.905 1.537l16.249 12.208c.628.472.998 1.212.998 1.999s-.37 1.526-.998 1.999l-16.249 12.208c-1.027.772-1.235 2.236-.463 3.263s2.236 1.234 3.262.464l21.389-16.071c.591-.444.931-1.124.931-1.863s-.339-1.418-.932-1.864l-21.387-16.07c-.408-.307-.894-.468-1.396-.468z"/></g></g><g><g><path d="m99.755 133.344c-1.577 0-3.105-.507-4.389-1.472l-21.388-16.07c-1.859-1.397-2.925-3.533-2.926-5.858 0-2.328 1.066-4.464 2.925-5.862l21.388-16.07c1.563-1.175 3.493-1.671 5.434-1.395 1.94.275 3.656 1.289 4.831 2.852 1.177 1.565 1.673 3.496 1.398 5.434-.276 1.938-1.29 3.652-2.855 4.829l-13.588 10.21 13.588 10.21c1.568 1.178 2.583 2.895 2.856 4.834.273 1.937-.224 3.865-1.399 5.43-1.176 1.565-2.891 2.579-4.83 2.854-.349.05-.698.074-1.045.074zm.007-41.801c-.501 0-.986.161-1.392.465l-21.388 16.07c-.599.45-.929 1.112-.929 1.864 0 .75.331 1.412.93 1.862l21.388 16.07c.498.375 1.107.534 1.728.444.616-.087 1.161-.41 1.535-.907.375-.499.533-1.111.446-1.727s-.41-1.161-.909-1.537l-16.25-12.207c-.628-.472-.998-1.212-.998-1.999s.37-1.526.998-1.999l16.248-12.208c.499-.375.821-.92.909-1.536.088-.615-.07-1.229-.445-1.726-.373-.497-.918-.818-1.536-.906-.112-.014-.223-.023-.335-.023z"/></g></g><g><g><path d="m108.576 138.875c-.81 0-1.633-.135-2.439-.42-3.81-1.349-5.813-5.547-4.464-9.357l15.302-43.205c1.349-3.81 5.547-5.812 9.356-4.462 3.809 1.35 5.81 5.547 4.462 9.356l-15.302 43.205c-1.062 3.003-3.896 4.883-6.915 4.883zm15.31-52.865c-.96 0-1.861.598-2.199 1.552l-15.302 43.204c-.429 1.211.208 2.546 1.418 2.975 1.211.43 2.547-.207 2.975-1.417l15.302-43.204c.428-1.211-.208-2.545-1.418-2.975-.256-.092-.518-.135-.776-.135z"/></g></g></g></g></svg>