<svg height="512" viewBox="0 0 50 60" width="512" xmlns="http://www.w3.org/2000/svg"><g id="Page-1" fill="none" fill-rule="evenodd"><g id="125---Python-Files" fill-rule="nonzero"><g id="Icons" transform="translate(1 1)"><path id="Shape" d="m44 4v46c0 2.209139-1.790861 4-4 4h-36c-2.209139 0-4-1.790861-4-4v-37h9c2.209139 0 4-1.790861 4-4v-9h27c2.209139 0 4 1.790861 4 4z" fill="#00bcd4"/><path id="Shape" d="m40 0h-3c2.209139 0 4 1.790861 4 4v46c0 2.209139-1.790861 4-4 4h3c2.209139 0 4-1.790861 4-4v-46c0-2.209139-1.790861-4-4-4z" fill="#00838f"/><path id="Shape" d="m48 8v46c0 2.209139-1.790861 4-4 4h-36c-2.209139 0-4-1.790861-4-4h36c2.209139 0 4-1.790861 4-4v-46c2.209139 0 4 1.790861 4 4z" fill="#3f51b5"/><path id="Shape" d="m38 25v6c0 2.209139-1.790861 4-4 4h-5v5c0 2.209139-1.790861 4-4 4h-6c-2.209139 0-4-1.790861-4-4v-8c0-2.209139 1.790861-4 4-4h6c2.209139 0 4-1.790861 4-4v-3h5c2.209139 0 4 1.790861 4 4z" fill="#ffdc00"/><path id="Shape" d="m26 40c0 2.209139-1.790861 4-4 4h3c2.209139 0 4-1.790861 4-4v-5h-3z" fill="#fec108"/><path id="Shape" d="m34 21h-3c2.209139 0 4 1.790861 4 4v6c0 2.209139-1.790861 4-4 4h3c2.209139 0 4-1.790861 4-4v-6c0-2.209139-1.790861-4-4-4z" fill="#fec108"/><path id="Shape" d="m29 16v8c0 2.209139-1.790861 4-4 4h-6c-2.209139 0-4 1.790861-4 4v3h-5c-2.209139 0-4-1.790861-4-4v-6c0-2.209139 1.790861-4 4-4h5v-5c0-2.209139 1.790861-4 4-4h6c2.209139 0 4 1.790861 4 4z" fill="#3f51b5"/><path id="Shape" d="m25 12h-3c2.209139 0 4 1.790861 4 4v8c0 2.209139-1.790861 4-4 4h3c2.209139 0 4-1.790861 4-4v-8c0-2.209139-1.790861-4-4-4z" fill="#283593"/><path id="Shape" d="m12 32v3h3v-3c0-2.209139 1.790861-4 4-4h-3c-2.209139 0-4 1.790861-4 4z" fill="#283593"/><path id="Shape" d="m13 0v9c0 2.209139-1.790861 4-4 4h-9z" fill="#00695c"/><g fill="#f5f5f5"><path id="Shape" d="m34 5h-6c-.5522847 0-1-.44771525-1-1s.4477153-1 1-1h6c.5522847 0 1 .44771525 1 1s-.4477153 1-1 1z"/><path id="Shape" d="m40 5h-2c-.5522847 0-1-.44771525-1-1s.4477153-1 1-1h2c.5522847 0 1 .44771525 1 1s-.4477153 1-1 1z"/></g></g><g id="Layer_2" fill="#000"><path id="Shape" d="m9 60h36c2.7600532-.0033061 4.9966939-2.2399468 5-5v-46c-.0042686-2.40788675-1.724146-4.47073086-4.092-4.908-.4372691-2.36785399-2.5001132-4.08773136-4.908-4.092h-27c-.2651948.00005664-.5195073.10545063-.707.293l-13 13c-.18754937.1874927-.29294336.4418052-.293.707v37c.00426864 2.4078868 1.72414601 4.4707309 4.092 4.908.43726914 2.367854 2.50011325 4.0877314 4.908 4.092zm39-51v46c0 1.6568542-1.3431458 3-3 3h-36c-1.26678543-.0052514-2.39374545-.8056491-2.816-2h34.816c2.7600532-.0033061 4.9966939-2.2399468 5-5v-44.816c1.1943509.42225455 1.9947486 1.54921457 2 2.816zm-35-5.586v6.586c0 1.6568542-1.3431458 3-3 3h-6.586zm-11 47.586v-36h8c2.7600532-.0033061 4.9966939-2.2399468 5-5v-8h26c1.6568542 0 3 1.34314575 3 3v46c0 1.6568542-1.3431458 3-3 3h-36c-1.65685425 0-3-1.3431458-3-3z"/><path id="Shape" d="m6 51h1c.55228475 0 1-.4477153 1-1s-.44771525-1-1-1h-1c-.55228475 0-1 .4477153-1 1s.44771525 1 1 1z"/><path id="Shape" d="m31 49c-.5522847 0-1 .4477153-1 1s.4477153 1 1 1h9c.5522847 0 1-.4477153 1-1s-.4477153-1-1-1z"/><path id="Shape" d="m26 49h-15c-.5522847 0-1 .4477153-1 1s.4477153 1 1 1h15c.5522847 0 1-.4477153 1-1s-.4477153-1-1-1z"/><path id="Shape" d="m11 37h4v4c.0033061 2.7600532 2.2399468 4.9966939 5 5h6c2.7600532-.0033061 4.9966939-2.2399468 5-5v-4h4c2.7600532-.0033061 4.9966939-2.2399468 5-5v-6c-.0033061-2.7600532-2.2399468-4.9966939-5-5h-4v-4c-.0033061-2.7600532-2.2399468-4.9966939-5-5h-6c-2.7600532.0033061-4.9966939 2.2399468-5 5v4h-4c-2.76005315.0033061-4.99669388 2.2399468-5 5v6c.00330612 2.7600532 2.23994685 4.9966939 5 5zm24-14c1.6568542 0 3 1.3431458 3 3v6c0 1.6568542-1.3431458 3-3 3h-12c-.5522847 0-1 .4477153-1 1s.4477153 1 1 1h6v4c0 1.6568542-1.3431458 3-3 3h-6c-1.6568542 0-3-1.3431458-3-3v-8c0-1.6568542 1.3431458-3 3-3h6c2.7600532-.0033061 4.9966939-2.2399468 5-5v-2zm-27 3c0-1.6568542 1.34314575-3 3-3h12c.5522847 0 1-.4477153 1-1s-.4477153-1-1-1h-6v-4c0-1.6568542 1.3431458-3 3-3h6c1.6568542 0 3 1.3431458 3 3v8c0 1.6568542-1.3431458 3-3 3h-6c-2.7600532.0033061-4.9966939 2.2399468-5 5v2h-4c-1.65685425 0-3-1.3431458-3-3z"/><circle id="Oval" cx="21" cy="18" r="1"/><circle id="Oval" cx="25" cy="40" r="1"/></g></g></g></svg>