<?xml version="1.0" encoding="iso-8859-1"?>
<!-- Generator: Adobe Illustrator 19.0.0, SVG Export Plug-In . SVG Version: 6.00 Build 0)  -->
<svg version="1.1" id="Layer_1" xmlns="http://www.w3.org/2000/svg" xmlns:xlink="http://www.w3.org/1999/xlink" x="0px" y="0px"
	 viewBox="0 0 512 512" style="enable-background:new 0 0 512 512;" xml:space="preserve">
<polygon style="fill:#983300;" points="441.457,222.076 441.457,15.674 256.805,15.674 235.906,242.975 "/>
<polygon style="fill:#D5681E;" points="256.805,15.674 72.152,15.674 72.152,222.076 256.805,242.975 "/>
<path style="fill:#663300;" d="M235.906,481.186l173.416-20.899c20.262-29.633,32.124-65.463,32.124-104.07l0.004-55.77
	l-10.448-15.674l10.451-15.674l0.004-47.021H256.804L235.906,481.186z"/>
<path style="fill:#983300;" d="M256.805,222.077H72.152l0,0V269.1l10.449,15.674l-10.449,15.674v55.769
	c0,38.608,11.862,74.438,32.125,104.07l152.527,20.899V222.077z"/>
<polygon style="fill:#FFBA00;" points="452.72,474.95 463.17,512 495.563,486.143 "/>
<polygon style="fill:#FDE09C;" points="463.17,460.287 452.72,486.143 495.563,486.143 "/>
<polygon style="fill:#FF8E00;" points="39.991,475.693 60.89,512 463.17,512 463.17,485.4 "/>
<polygon style="fill:#FFBA00;" points="409.323,460.287 104.277,460.287 60.89,460.287 39.991,486.143 463.17,486.143 
	463.17,460.287 "/>
<polygon style="fill:#FF0F4D;" points="8.643,486.143 8.643,512 60.89,512 60.89,486.143 34.766,475.693 "/>
<rect x="8.643" y="460.288" style="fill:#FF6E7A;" width="52.247" height="25.856"/>
<path style="fill:#FF9933;" d="M134.756,27.405c-0.276,0.266-0.561,0.521-0.833,0.793c-13.42,13.417-20.81,31.257-20.81,50.235
	s7.391,36.817,20.805,50.229c13.418,13.419,31.257,20.809,50.235,20.809c18.975,0,36.815-7.391,50.228-20.805
	c3.616-3.616,6.778-7.56,9.491-11.754C224.498,76.349,184.801,43.849,134.756,27.405z"/>
<path style="fill:#D5681E;" d="M378.854,27.405c0.276,0.266,0.561,0.521,0.833,0.793c13.419,13.417,20.81,31.257,20.81,50.235
	s-7.391,36.817-20.805,50.229c-13.418,13.419-31.257,20.809-50.235,20.809c-18.975,0-36.815-7.391-50.228-20.805
	c-3.616-3.616-6.778-7.56-9.491-11.754C289.112,76.349,328.81,43.849,378.854,27.405z"/>
<g>
	<path style="fill:#424242;" d="M157.398,51.678c-7.146,7.146-11.082,16.648-11.082,26.755s3.935,19.608,11.082,26.755l0,0
		c7.376,7.376,17.065,11.063,26.754,11.063c9.689,0,19.378-3.688,26.755-11.064c7.146-7.146,11.082-16.648,11.082-26.755
		s-3.936-19.608-11.082-26.754C196.155,36.925,172.152,36.926,157.398,51.678z"/>
	<path style="fill:#424242;" d="M356.211,51.678c-14.751-14.753-38.755-14.751-53.508,0c-7.146,7.146-11.082,16.648-11.082,26.755
		s3.935,19.608,11.082,26.755c7.376,7.376,17.065,11.063,26.755,11.063c9.689,0,19.377-3.688,26.754-11.063l0,0
		c7.146-7.146,11.082-16.648,11.082-26.755S363.358,58.823,356.211,51.678z"/>
	<rect x="117.828" y="430.674" style="fill:#424242;" width="31.348" height="65.915"/>
	<rect x="159.626" y="430.674" style="fill:#424242;" width="31.348" height="65.915"/>
	<rect x="201.424" y="430.674" style="fill:#424242;" width="31.348" height="65.915"/>
	<rect x="280.839" y="430.674" style="fill:#424242;" width="31.348" height="65.915"/>
	<rect x="322.637" y="430.674" style="fill:#424242;" width="31.348" height="65.915"/>
	<rect x="364.435" y="430.674" style="fill:#424242;" width="31.348" height="65.915"/>
</g>
<polygon style="fill:#D5681E;" points="441.457,269.098 256.805,269.098 235.906,284.773 256.805,300.447 441.457,300.447 "/>
<rect x="72.153" y="269.094" style="fill:#FF9933;" width="184.652" height="31.348"/>
<path style="fill:#663300;" d="M453.394,0c-56.062,0-108.913,17.608-148.814,49.581c-20.92,16.762-37.02,36.434-47.775,57.925
	l-10.449,24.482l10.449,41.212h15.669h0.01c0-0.11-0.004-0.217-0.005-0.327c0.226-78.067,81.294-141.524,180.914-141.524h49.963V0
	H453.394z"/>
<path style="fill:#983300;" d="M209.03,49.581C169.127,17.608,116.278,0,60.216,0H10.252v31.348h49.963
	c99.62,0,180.688,63.457,180.914,141.523c0,0.11-0.005,0.217-0.005,0.327h0.01h15.669v-65.694
	C246.05,86.015,229.95,66.343,209.03,49.581z"/>
<g>
</g>
<g>
</g>
<g>
</g>
<g>
</g>
<g>
</g>
<g>
</g>
<g>
</g>
<g>
</g>
<g>
</g>
<g>
</g>
<g>
</g>
<g>
</g>
<g>
</g>
<g>
</g>
<g>
</g>
</svg>
