<svg width="260" height="260" viewBox="0 0 260 260" fill="none" xmlns="http://www.w3.org/2000/svg">
<rect x="34" y="81" width="197" height="98" fill="white"/>
<path d="M69.724 102.311C67.4727 100.628 65.2155 99.7866 62.9641 99.7866H52.8446V160.417H62.9699C65.2213 160.417 67.4785 159.575 69.7298 157.892C71.9812 156.209 73.1069 153.684 73.1069 150.312V109.891C73.1011 106.525 71.9696 103.994 69.724 102.311V102.311ZM234.503 0H25.4974C11.4553 0 0.0592291 11.3692 0.0244141 25.4196V234.58C0.0592291 248.631 11.4553 260 25.4974 260H234.503C248.551 260 259.942 248.631 259.976 234.58V25.4196C259.942 11.3692 248.545 0 234.503 0V0ZM89.499 150.423C89.499 161.339 82.7623 177.879 61.4381 177.845H34.5145V81.8187H62.0067C82.5708 81.8187 89.4874 98.3357 89.4932 109.258L89.499 150.423ZM147.919 98.9683H117.003V121.266H135.902V138.427H117.003V160.718H147.924V177.879H111.844C105.369 178.048 99.9841 172.929 99.8216 166.452V93.8437C99.6649 87.3728 104.789 81.9987 111.258 81.8362H147.924L147.919 98.9683ZM208.056 165.878C200.396 183.724 186.673 180.172 180.529 165.878L158.172 81.842H177.07L194.31 147.84L211.467 81.842H230.372L208.056 165.878Z" fill="black"/>
</svg>
