<?xml version="1.0" encoding="UTF-8"?> <svg xmlns="http://www.w3.org/2000/svg" xmlns:xlink="http://www.w3.org/1999/xlink" id="Layer_1" data-name="Layer 1" viewBox="0 0 125 125"><defs><style>.cls-1{fill:none;}.cls-2{fill:#c2d1df;}.cls-3{clip-path:url(#clip-path);}.cls-4{fill:#346699;}.cls-5{fill:#afbdca;}</style><clipPath id="clip-path"><ellipse class="cls-1" cx="62.42" cy="62.5" rx="62.42" ry="62.5"></ellipse></clipPath></defs><title>Peer review week icons-master-1</title><ellipse class="cls-2" cx="62.58" cy="62.5" rx="62.42" ry="62.5"></ellipse><g class="cls-3"><path class="cls-4" d="M50.21,24.79a8.17,8.17,0,0,1,3-.81c.47.05.64.54.87.88.31,2,.57,4,.87,5.95a24.84,24.84,0,0,1,2.73-2.6A19.84,19.84,0,0,1,75,24.69,19.39,19.39,0,0,1,84.78,32a18.35,18.35,0,0,1,2.51,4.78A27.73,27.73,0,0,1,88.39,47a28.77,28.77,0,0,1-6.52,17.33,22.46,22.46,0,0,1-14.58,7.87,24.6,24.6,0,0,1-12.2-1.77c.1,5.63.18,11.27.21,16.9.12,2.6-.12,5.24.49,7.79a2,2,0,0,0,1.55,1.72c1.69.21,3.4.06,5.09.12.32,0,.73.21.7.57a29.54,29.54,0,0,1,0,3.12c-.25.52-.94.39-1.42.41A243,243,0,0,0,37,101l-.38-.31c0-1.23-.36-2.61.18-3.75,1.67-.2,3.38.11,5-.18,1.07-.27,1.49-1.45,1.64-2.42.23-1.78.16-3.59.24-5.38q0-23.43,0-46.85c0-.87,0-1.73,0-2.6a5,5,0,0,0-1.9-3.66A27.17,27.17,0,0,0,38,33.71a3.37,3.37,0,0,1-1.28-1.05,5.65,5.65,0,0,1,0-1.88A3.58,3.58,0,0,1,38,30.1C42.09,28.34,46.14,26.55,50.21,24.79Zm4.88,10.45c0,8,0,16.07,0,24.11a7.69,7.69,0,0,0,1.68,5.16A13.51,13.51,0,0,0,68,67.82a10.09,10.09,0,0,0,7.12-5.88c1.92-4.11,2.21-8.78,1.88-13.25A32.73,32.73,0,0,0,74.51,38,14.27,14.27,0,0,0,70,32.12a9.62,9.62,0,0,0-6.58-1.69A11.79,11.79,0,0,0,55.09,35.24Z"></path><path class="cls-5" d="M54.05,24.86c1.34,1,2.36,2.27,3.6,3.35a24.84,24.84,0,0,0-2.73,2.6C54.62,28.83,54.36,26.84,54.05,24.86Z"></path><path class="cls-5" d="M55.09,35.24a11.79,11.79,0,0,1,8.32-4.81A9.62,9.62,0,0,1,70,32.12,14.27,14.27,0,0,1,74.51,38,32.73,32.73,0,0,1,77,48.69c.33,4.47,0,9.14-1.88,13.25A10.09,10.09,0,0,1,68,67.82a13.51,13.51,0,0,1-11.24-3.31,7.69,7.69,0,0,1-1.68-5.16C55.09,51.31,55.12,43.27,55.09,35.24Z"></path><path class="cls-5" d="M84.78,32c1,.21,1.49,1.15,2.19,1.77Q108.15,55,129.33,76.2v53.06H64.94c-8.27-8.41-16.68-16.69-25-25.07A34.58,34.58,0,0,1,37,101a243,243,0,0,1,24.74,0c.48,0,1.17.11,1.42-.41a29.54,29.54,0,0,0,0-3.12c0-.36-.38-.61-.7-.57-1.69-.06-3.4.09-5.09-.12a2,2,0,0,1-1.55-1.72c-.61-2.55-.37-5.19-.49-7.79,0-5.63-.11-11.27-.21-16.9a24.6,24.6,0,0,0,12.2,1.77,22.46,22.46,0,0,0,14.58-7.87A28.77,28.77,0,0,0,88.39,47a27.73,27.73,0,0,0-1.1-10.13A18.35,18.35,0,0,0,84.78,32Z"></path><path class="cls-5" d="M39.71,35.75c-.61-.64-1.41-1.16-1.67-2a27.17,27.17,0,0,1,3.69,2.16,5,5,0,0,1,1.9,3.66C42.21,38.39,41,37,39.71,35.75Z"></path></g></svg> 