<svg height="480pt" viewBox="-32 0 480 480.00002" width="480pt" xmlns="http://www.w3.org/2000/svg"><path d="m344 472c-17.671875 0-32-14.328125-32-32v-32h-272v-320h80v-80h256v432c0 17.671875-14.328125 32-32 32zm0 0" fill="#f4f4e6"/><path d="m120 88h-80l80-80zm0 0" fill="#cfdfe8"/><path d="m152 40h256v128h-256zm0 0" fill="#f9bb4b"/><path d="m40 472c-17.671875 0-32-14.328125-32-32v-32h304v32c0 17.671875 14.328125 32 32 32zm0 0" fill="#cfdfe8"/><path d="m64 112h16v16h-16zm0 0" fill="#eb8cb3"/><path d="m96 136h16v16h-16zm0 0" fill="#eb8cb3"/><g fill="#394d5c"><path d="m232 144h-48c-4.417969 0-8-3.582031-8-8v-64c0-4.417969 3.582031-8 8-8h56v16h-48v48h32v-16h-16v-16h24c4.417969 0 8 3.582031 8 8v32c0 4.417969-3.582031 8-8 8zm0 0"/><path d="m256 64h16v80h-16zm0 0"/><path d="m288 64h64v16h-64zm0 0"/><path d="m312 72h16v72h-16zm0 0"/></g><path d="m72 200h272v176h-272zm0 0" fill="#32b1cc"/><path d="m160 288h-16c.039062-35.328125 28.671875-63.960938 64-64 21.980469-1.328125 42.960938 9.335938 54.847656 27.871094l-13.695312 8.257812c-9.089844-13.632812-24.808594-21.324218-41.152344-20.128906-26.5.027344-47.972656 21.5-48 48zm0 0" fill="#e33e5c"/><path d="m208 352c-21.503906.011719-41.742188-10.160156-54.558594-27.425781l13.117188-9.148438c9.78125 13.027344 25.152344 20.65625 41.441406 20.574219 26.5-.027344 47.972656-21.5 48-48h16c-.039062 35.328125-28.671875 63.960938-64 64zm0 0" fill="#e33e5c"/><path d="m282.34375 317.65625-19.917969-19.921875-26.851562 13.425781-7.148438-14.320312 37.148438-18.574219 28.082031 28.078125zm0 0" fill="#e33e5c"/><path d="m150.425781 297.734375-28.082031-28.078125 11.3125-11.3125 19.917969 19.921875 26.851562-13.425781 7.148438 14.320312zm0 0" fill="#e33e5c"/><path d="m96 224h16v16h-16zm0 0" fill="#195c85"/><path d="m288 336h32v16h-32zm0 0" fill="#195c85"/><path d="m32 400h-32v40c.0273438 22.082031 17.917969 39.972656 40 40h304c22.082031-.027344 39.972656-17.917969 40-40v-264h32v-144h-32v-24c0-4.417969-3.582031-8-8-8h-256c-2.125-.00390625-4.167969.84375-5.664062 2.351562l-80 80c-1.5 1.496094-2.339844 3.53125-2.335938 5.648438zm-16 40v-24h288v24c.03125 8.683594 2.914062 17.117188 8.207031 24h-272.207031c-13.253906 0-24-10.746094-24-24zm384-280h-240v-112h240zm-32-128h-224v144h224v264c0 13.253906-10.746094 24-24 24s-24-10.746094-24-24v-32c0-4.417969-3.582031-8-8-8h-264v-304h72c4.417969 0 8-3.582031 8-8v-72h240zm-308.6875 48 52.6875-52.6875v52.6875zm0 0"/><path d="m64 112h16v16h-16zm0 0"/><path d="m96 136h16v16h-16zm0 0"/><path d="m184 144h48c4.417969 0 8-3.582031 8-8v-32c0-4.417969-3.582031-8-8-8h-24v16h16v16h-32v-48h48v-16h-56c-4.417969 0-8 3.582031-8 8v64c0 4.417969 3.582031 8 8 8zm0 0"/><path d="m256 64h16v80h-16zm0 0"/><path d="m312 144h16v-64h24v-16h-64v16h24zm0 0"/><path d="m64 384h288v-192h-288zm16-176h256v160h-256zm0 0"/><path d="m293.65625 306.34375-28.082031-28.078125-37.148438 18.535156 7.148438 14.320313 18.328125-9.167969c-6.15625 20.199219-24.78125 34.015625-45.902344 34.046875-16.289062.082031-31.660156-7.546875-41.441406-20.574219l-13.117188 9.148438c12.816406 17.265625 33.054688 27.4375 54.558594 27.425781 28.78125-.054688 53.996094-19.292969 61.648438-47.039062l12.695312 12.695312zm0 0"/><path d="m180.425781 264.800781-18.328125 9.167969c6.1875-20.171875 24.804688-33.949219 45.902344-33.96875 16.34375-1.195312 32.0625 6.496094 41.152344 20.128906l13.695312-8.257812c-11.886718-18.535156-32.867187-29.199219-54.847656-27.871094-28.78125.054688-53.996094 19.292969-61.648438 47.039062l-12.695312-12.695312-11.3125 11.3125 28.082031 28.078125 37.148438-18.535156zm0 0"/><path d="m96 224h16v16h-16zm0 0"/><path d="m288 336h32v16h-32zm0 0"/></svg>