<svg width="53" height="53" viewBox="0 0 53 53" fill="none" xmlns="http://www.w3.org/2000/svg">
<path d="M41.2172 30.794V39.9616C41.2172 42.2344 40.4102 44.1777 38.7964 45.7916C37.1825 47.4055 35.2392 48.2124 32.9664 48.2124H9.13069C6.8579 48.2124 4.91457 47.4055 3.30069 45.7916C1.68682 44.1777 0.879883 42.2344 0.879883 39.9616V16.1259C0.879883 13.8531 1.68682 11.9098 3.30069 10.2959C4.91457 8.68204 6.8579 7.8751 9.13069 7.8751H29.2993C29.5667 7.8751 29.7864 7.96105 29.9583 8.13294C30.1302 8.30483 30.2161 8.52447 30.2161 8.79186V10.6254C30.2161 10.8928 30.1302 11.1124 29.9583 11.2843C29.7864 11.4562 29.5667 11.5421 29.2993 11.5421H9.13069C7.87015 11.5421 6.79105 11.991 5.8934 12.8886C4.99574 13.7863 4.54691 14.8654 4.54691 16.1259V39.9616C4.54691 41.2221 4.99574 42.3012 5.8934 43.1989C6.79105 44.0965 7.87015 44.5454 9.13069 44.5454H32.9664C34.2269 44.5454 35.306 44.0965 36.2037 43.1989C37.1013 42.3012 37.5502 41.2221 37.5502 39.9616V30.794C37.5502 30.5266 37.6361 30.307 37.808 30.1351C37.9799 29.9632 38.1995 29.8773 38.4669 29.8773H40.3004C40.5678 29.8773 40.7875 29.9632 40.9593 30.1351C41.1312 30.307 41.2172 30.5266 41.2172 30.794ZM52.2183 6.04159V20.7097C52.2183 21.2063 52.0368 21.636 51.6739 21.9989C51.3111 22.3618 50.8813 22.5432 50.3847 22.5432C49.8882 22.5432 49.4584 22.3618 49.0956 21.9989L44.0534 16.9567L25.3745 35.6356C25.1835 35.8266 24.9638 35.9221 24.7156 35.9221C24.4673 35.9221 24.2476 35.8266 24.0566 35.6356L20.7907 32.3697C20.5997 32.1787 20.5042 31.9591 20.5042 31.7108C20.5042 31.4625 20.5997 31.2429 20.7907 31.0519L39.4696 12.3729L34.4275 7.33078C34.0646 6.9679 33.8831 6.53817 33.8831 6.04159C33.8831 5.54501 34.0646 5.11528 34.4275 4.7524C34.7903 4.38952 35.2201 4.20808 35.7166 4.20808H50.3847C50.8813 4.20808 51.3111 4.38952 51.6739 4.7524C52.0368 5.11528 52.2183 5.54501 52.2183 6.04159Z" fill="#4E5ABE"/>
</svg>
