<svg width="24" height="24" viewBox="0 0 24 24" fill="none" xmlns="http://www.w3.org/2000/svg">
<path d="M12 0C5.372 0 0 5.372 0 12C0 18.628 5.372 24 12 24C18.628 24 24 18.628 24 12C24 5.372 18.628 0 12 0ZM7.369 4.378C7.894 4.378 8.316 4.809 8.316 5.325C8.316 5.841 7.894 6.272 7.369 6.272C7.11808 6.27121 6.87767 6.17118 6.70024 5.99376C6.52282 5.81633 6.42279 5.57592 6.422 5.325C6.422 4.8 6.844 4.378 7.369 4.378V4.378ZM6.647 7.416H8.091V17.457H6.647V7.416ZM10.209 7.416H14.109C17.821 7.416 19.453 10.069 19.453 12.441C19.453 15.019 17.437 17.466 14.128 17.466H10.209V7.416ZM11.653 8.719V16.163H13.95C17.222 16.163 17.972 13.679 17.972 12.441C17.972 10.425 16.688 8.719 13.875 8.719H11.653V8.719Z" fill="#A6CE39"/>
</svg>
