<svg width="72" height="67" viewBox="0 0 72 67" fill="none" xmlns="http://www.w3.org/2000/svg">
<path d="M12.0591 36.9658C12.1524 31.1947 13.1513 22.6573 14.8875 15.4985L0.15625 22.8685L15.2857 62.7415L47.7131 66.9296L50.6553 63.7749C41.5694 63.4433 25.3978 57.3065 16.9946 51.7126C13.322 49.2643 12.0022 40.9835 12.0591 36.9658Z" fill="#337A87"/>
<path d="M70.8943 18.6236C69.7702 12.0667 60.8823 5.612 53.8739 3.78369C41.8869 0.649457 26.0907 -2.27129 20.195 3.17956C18.0379 5.17366 16.2448 9.92044 14.8955 15.4894L31.6428 7.11325L66.373 14.9193L69.1035 43.9905L50.6565 63.7748C51.6518 63.8242 52.6497 63.774 53.635 63.6249C59.3396 62.6824 67.2399 56.5842 69.3083 50.1999C71.3084 44.0291 72.7147 29.2505 70.8943 18.6236Z" fill="#9FD6E0"/>
<path d="M66.3725 14.9195L31.6423 7.12256L14.895 15.4987C13.1589 22.6666 12.1645 31.1949 12.0666 36.966C12.0029 40.9837 13.3227 49.2644 16.9953 51.7128C25.3894 57.3067 41.5701 63.4435 50.656 63.775L69.1031 43.9907L66.3725 14.9195Z" fill="#35C5DF"/>
<path d="M19.1143 44.0453L21.7697 40.9224C23.5901 42.6349 26.002 43.7864 28.3367 43.7864C31.1559 43.7864 32.6941 42.5191 32.6941 40.5772C32.6941 38.5332 31.074 37.8768 28.7826 36.907L25.3353 35.4148C22.8323 34.3791 20.2224 32.3987 20.2224 28.7103C20.2224 24.6789 23.7903 21.5674 28.7462 21.5674C31.6755 21.5729 34.4843 22.7319 36.5624 24.7925L34.2232 27.6791C32.6099 26.3164 30.9011 25.5215 28.7462 25.5215C26.3729 25.5215 24.8302 26.623 24.8302 28.4445C24.8302 30.4023 26.7393 31.1245 28.8418 31.983L32.2413 33.4048C35.2563 34.654 37.3497 36.5618 37.3497 40.2184C37.3497 44.3179 33.9365 47.7428 28.2479 47.7428C24.8369 47.7456 21.5597 46.4189 19.1143 44.0453V44.0453Z" fill="white"/>
<path d="M40.1201 37.804C40.1201 31.4832 44.605 27.8357 49.677 27.8357C51.7327 27.8189 53.7187 28.5792 55.2359 29.9638L53.0378 32.8982C52.0366 32.0238 51.0901 31.5355 49.9137 31.5355C46.8714 31.5355 44.7734 34.0338 44.7734 37.8153C44.7734 41.5968 46.8463 44.0656 49.7794 44.0656C51.2516 44.0656 52.6032 43.3457 53.6818 42.4417L55.5204 45.4102C53.8031 46.916 51.5942 47.7446 49.3084 47.7404C44.1067 47.7404 40.1201 44.0929 40.1201 37.804Z" fill="white"/>
<path d="M58.0244 22.4666C58.0244 20.954 59.2145 19.9229 60.8118 19.9229C62.4092 19.9229 63.5993 20.954 63.5993 22.4666C63.5993 23.9792 62.4092 25.0103 60.8118 25.0103C59.2145 25.0103 58.0244 23.9497 58.0244 22.4666ZM58.5318 28.299H63.0623V47.277H58.5409L58.5318 28.299Z" fill="white"/>
</svg>
